<svg width="265" height="28" viewBox="0 0 265 28" fill="none" xmlns="http://www.w3.org/2000/svg">
<path d="M10.6944 18.8543C8.87691 19.2374 6.99555 18.5926 5.79504 17.1752C3.72529 14.5757 3.84666 10.8598 6.08078 8.40061C7.92674 6.46551 11.4986 6.35867 13.2838 8.43601C14.2308 7.64389 15.1829 6.8935 16.1299 6.10833C16.2728 6.00086 16.4871 5.73345 16.2728 5.58995C14.6752 3.91341 12.4373 2.99675 10.1229 3.07261C7.27686 2.93669 4.50792 4.01898 2.50898 6.04954C0.802093 7.9486 -0.0955997 10.4394 0.00807756 12.9909C-0.0526116 15.6062 0.938644 18.1368 2.75869 20.0156C4.70706 21.8426 7.2914 22.8358 9.96236 22.7839C12.675 22.9129 15.279 21.7054 16.9334 19.5516C15.8258 18.6583 14.6417 17.8365 13.4981 16.9616C12.8217 17.9086 11.826 18.5806 10.6944 18.8549V18.8543ZM70.1438 18.4434C68.1879 19.3632 65.8615 18.9163 64.3866 17.3358C62.0766 14.8299 62.1841 10.3648 64.7975 8.09653C66.1637 6.99085 67.9812 6.61597 69.6735 7.09074C70.4618 7.34108 71.1718 7.79245 71.7331 8.39998C72.6795 7.62619 73.6442 6.8581 74.5906 6.0723C74.6981 5.96483 74.9301 5.75115 74.7335 5.60828C73.1796 3.82238 70.733 3.01824 68.4053 3.05428C65.5245 2.97905 62.7486 4.1353 60.7731 6.2335C59.1844 8.0978 58.3499 10.4881 58.434 12.9365C58.3404 15.7794 59.5188 18.5161 61.648 20.4025C63.6065 21.983 66.0682 22.8067 68.5836 22.7239C71.2274 22.7871 73.7403 21.5784 75.341 19.4732C74.2157 18.5983 73.055 17.7764 71.9297 16.9015C71.4442 17.5305 70.8367 18.0552 70.1438 18.4434ZM109.911 10.2225V6.65011H106.869C106.834 7.75705 107.137 9.19147 106.065 9.92479C105.119 10.4419 103.958 10.1208 102.922 10.2099C102.922 9.33497 102.869 8.46004 102.958 7.59648C102.987 7.10148 103.308 6.67097 103.773 6.50091C104.503 6.29862 105.278 6.32959 105.988 6.59068C106.06 5.51914 106.06 4.4653 106.184 3.39376C105.048 3.13773 103.877 3.07767 102.72 3.21485C101.377 3.28439 100.177 4.07778 99.5882 5.2865C98.9276 6.84039 99.1773 8.57888 99.0704 10.1682H96.5525V13.5263H99.0704V22.533H102.916V13.5617H106.155V18.8543C106.169 20.168 106.902 21.3685 108.066 21.9798C109.438 22.5848 110.986 22.6613 112.412 22.1941V19.2115C111.715 19.2469 110.947 19.4258 110.322 19.0149C109.97 18.7095 109.801 18.243 109.876 17.7821V13.5617H112.465C112.545 12.4497 112.545 11.3339 112.465 10.2219L109.911 10.2225ZM133.248 3.17945H117.829V6.98327H123.366V22.6765H127.676V6.98327H133.23L133.248 3.17945ZM164.854 10.4008C163.152 9.78002 161.251 10.0689 159.811 11.1683V3.19715C158.561 3.16112 157.293 3.19715 156.037 3.19715V22.7119H159.811V15.6397C159.796 15.1213 159.967 14.6137 160.294 14.211C160.958 13.5358 161.98 13.3638 162.829 13.7817C163.467 14.1775 163.837 14.8906 163.794 15.6397V22.6942H167.551V14.5795C167.473 12.8474 166.55 11.0254 164.854 10.4008ZM196.811 22.6942H200.562V3.17945H196.811V22.6942ZM231.483 4.67961C230.653 5.09179 230.163 5.97178 230.25 6.89413C230.34 7.76211 230.933 8.49607 231.762 8.76664C232.592 9.03721 233.503 8.79383 234.087 8.14584C234.672 7.49786 234.82 6.56603 234.465 5.76885C233.941 4.64674 232.607 4.15996 231.483 4.67961ZM148.566 13.7583C149.247 13.3632 150.047 13.2235 150.822 13.3651C151.339 13.5263 151.811 13.8076 152.197 14.1869C153 13.3297 153.804 12.4725 154.626 11.6329C154.079 11.0987 153.42 10.6923 152.697 10.4419C150.145 9.55054 147.308 10.1486 145.333 11.9958C143.234 14.2483 143.031 17.6747 144.851 20.1579C147.083 23.0867 151.893 23.5337 154.626 21.0872C153.822 20.2116 153.001 19.3544 152.197 18.4788C151.795 18.8682 151.305 19.1565 150.769 19.3183C149.978 19.4555 149.167 19.2893 148.494 18.8543C147.741 18.2171 147.312 17.2758 147.326 16.2896C147.34 15.3027 147.794 14.3741 148.566 13.7583ZM176.361 10.1151C175.045 10.0361 173.766 10.5702 172.897 11.5615V10.0253H169.123V22.6581H172.897V15.7762C172.865 15.2231 173.037 14.6769 173.379 14.24C173.757 13.8114 174.294 13.5573 174.865 13.5364C175.436 13.5162 175.99 13.7324 176.397 14.1332C176.801 14.7338 176.983 15.4551 176.916 16.1751V22.6765H180.69V16.8895C180.69 15.2585 180.833 13.4903 179.934 12.0439C179.203 10.7763 177.821 10.0304 176.362 10.1151H176.361ZM230.577 22.6942H234.346V10.0253H230.577V22.6942ZM79.8832 11.7581V10.2396H76.2159V22.533H79.99V17.265C79.99 16.3009 80.1152 15.2231 80.8833 14.5448C81.7051 13.7229 82.9549 13.7052 84.0265 13.9492V10.2048C82.5263 9.9368 80.6867 10.3117 79.8832 11.7581ZM254.986 14.8836C254.164 14.7224 253.2 14.7224 252.604 14.0618C252.641 13.8089 252.695 13.5579 252.766 13.312C253.293 12.7942 254.068 12.621 254.766 12.8651C255.282 13.1375 255.655 13.6192 255.79 14.1863C256.897 14.0441 257.986 13.8298 259.076 13.6692C258.876 12.3125 258.011 11.1468 256.772 10.5614C255.42 9.96715 253.908 9.8483 252.479 10.2219C250.869 10.6088 249.677 11.968 249.503 13.6154C249.368 14.8823 249.911 16.1271 250.932 16.8901C252.003 17.6576 253.361 17.729 254.593 18.0805C255.004 18.188 255.504 18.4914 255.415 19.0092C255.415 19.8121 254.432 20.027 253.807 19.9733C252.926 19.9208 252.203 19.257 252.075 18.384C251.003 18.5983 249.949 18.7412 248.895 18.9795C249.08 20.1844 249.703 21.2781 250.647 22.0512C251.986 23.1051 253.807 23.2416 255.409 22.9616C256.879 22.7536 258.157 21.8489 258.843 20.5327C259.462 19.2494 259.281 17.7246 258.379 16.6215C257.49 15.6587 256.287 15.0435 254.986 14.8836ZM47.5865 11.6152C45.3662 13.6154 44.9914 17.1929 46.4378 19.7292C48.1402 22.5513 52.1407 23.48 54.9867 21.9084C56.1297 21.2269 56.9787 20.1446 57.3681 18.872C56.3503 18.604 55.3496 18.2765 54.3255 18.0148C54.1118 18.4883 53.7799 18.8979 53.3614 19.2052C51.8075 20.1522 49.3964 19.2052 49.1941 17.3124C51.9264 17.2764 54.6473 17.3124 57.3795 17.3124C57.5407 15.5265 57.3795 13.6268 56.2903 12.1804C54.3198 9.48985 49.9445 9.34698 47.5865 11.6152ZM49.2832 14.8653C49.4697 14.1067 50.0077 13.4833 50.7303 13.1868C51.5742 12.9049 52.4991 13.0029 53.2659 13.4549C53.6794 13.8279 53.9765 14.3108 54.1232 14.8476C52.4985 14.919 50.8909 14.9013 49.2832 14.8653Z" fill="#00AADD"/>
<path d="M137.773 10.2811C135.89 9.72038 133.852 10.0561 132.248 11.1921C129.677 13.0494 129.087 16.8773 130.57 19.5918C132.007 21.9221 134.756 23.0954 137.433 22.5214C139.399 22.1964 141.006 20.7728 141.565 18.8598C140.541 18.5917 139.541 18.2643 138.523 18.0202C138.301 18.4881 137.97 18.8964 137.559 19.2113C136.022 20.1576 133.593 19.2113 133.391 17.3179C136.124 17.2825 138.856 17.3179 141.595 17.3179C141.713 16.1604 141.622 14.9908 141.327 13.8649C140.835 12.1404 139.494 10.7881 137.773 10.2811ZM133.451 14.8537C133.665 14.0318 134.285 13.3782 135.094 13.1215C135.97 12.8541 136.921 13.0418 137.63 13.6209C137.945 13.98 138.175 14.4048 138.303 14.865C136.665 14.9011 135.058 14.9011 133.451 14.865V14.8537ZM237.508 11.5436C235.312 13.6626 234.822 16.9968 236.317 19.6576C237.996 22.5511 242.104 23.4974 244.967 21.8367C246.076 21.1672 246.893 20.1045 247.253 18.8598C246.236 18.574 245.253 18.2643 244.235 18.0025C243.999 18.5475 243.594 19.0027 243.08 19.3004C241.508 20.0685 239.329 19.1221 239.079 17.3179C241.812 17.2642 244.55 17.3179 247.283 17.3179C247.551 15.3474 247.212 13.1506 245.783 11.6865C243.616 9.48963 239.74 9.50734 237.508 11.5436ZM239.115 14.865C239.328 14.1191 239.866 13.5084 240.58 13.2043C241.457 12.8952 242.428 13.0147 243.205 13.5261C243.581 13.8902 243.843 14.3555 243.961 14.865C242.348 14.9011 240.74 14.9011 239.115 14.865ZM206.658 10.2394C204.463 10.7211 202.692 12.3382 202.013 14.4801C201.334 16.6219 201.85 18.9635 203.366 20.6223C206.193 23.6403 211.855 23.3723 214.182 19.8719C215.545 17.7288 215.545 14.9909 214.182 12.8471C212.611 10.4183 209.373 9.57877 206.658 10.2394ZM211.284 17.5499C210.949 18.5955 209.999 19.3219 208.902 19.3718C207.928 19.5312 206.938 19.1967 206.259 18.4786C204.955 16.9424 205.437 13.9724 207.545 13.4363C208.509 13.2758 209.634 13.258 210.42 13.9187C211.408 14.848 211.748 16.2761 211.284 17.5499ZM27.1018 10.8766C25.7774 10.3576 24.3354 10.2154 22.9345 10.4657C21.6183 10.6807 20.4038 11.3059 19.4638 12.2516C17.3017 14.6273 17.3017 18.2579 19.4638 20.6343C21.2143 22.4202 24.042 22.938 26.4178 22.259C28.1246 21.807 29.5401 20.6147 30.2753 19.009C30.7792 17.8375 30.9302 16.5435 30.7096 15.288C30.3474 13.2941 28.9838 11.6277 27.1018 10.8766ZM26.5069 18.4906C25.7268 19.4433 24.2804 19.5685 23.1551 19.2113C20.8097 18.354 20.8982 14.365 23.298 13.669C24.3335 13.4186 25.5662 13.4724 26.3514 14.2638C27.4008 15.4429 27.4754 17.1972 26.5303 18.4615L26.5069 18.4906ZM193.305 11.579C191.513 10.1844 189.183 9.68435 186.977 10.2217C185.849 10.4708 184.808 11.0126 183.958 11.7933C181.705 13.9983 181.387 17.5126 183.208 20.0862C185.762 23.6049 191.804 23.5695 194.323 20.0325C196.144 17.4968 195.752 13.5792 193.305 11.579H193.305ZM191.572 17.4254C191.291 18.5089 190.35 19.2928 189.233 19.3718C188.468 19.4913 187.684 19.3466 187.012 18.9609C185.119 17.6928 185.405 14.1987 187.655 13.4901C188.715 13.2397 189.983 13.2758 190.823 14.0856C191.64 14.9902 191.925 16.2571 191.572 17.4254ZM229.215 10.0074H225.458V11.5967C224.267 10.0251 221.94 9.93595 220.172 10.4897C217.505 11.3824 216.004 14.401 216.415 17.0859C216.649 19.1341 217.956 20.903 219.844 21.7292C220.966 22.1673 222.189 22.2729 223.368 22.0327C224.132 21.8456 224.833 21.4637 225.405 20.9257C225.351 21.9796 225.28 23.2294 224.351 23.9324C223.272 24.6739 221.858 24.7087 220.743 24.0209C220.23 23.6188 219.854 23.0682 219.666 22.4436C218.558 22.7293 217.487 23.0391 216.38 23.3369C216.673 24.923 217.7 26.2765 219.148 26.9858C220.583 27.7716 222.279 27.8076 223.869 27.6471C225.44 27.5124 226.887 26.7374 227.87 25.504C228.832 24.1985 229.308 22.5985 229.215 20.9795C229.161 17.3356 229.286 13.669 229.215 10.0074ZM224.154 18.5683C223.47 18.9761 222.638 19.0558 221.888 18.7864C221.138 18.5165 220.548 17.9254 220.279 17.175C220.039 16.3228 220.141 15.4106 220.565 14.6337C221.001 13.98 221.697 13.5463 222.476 13.4426C223.736 13.3118 224.908 14.1014 225.262 15.3177C225.639 16.5264 225.192 17.8407 224.154 18.5683ZM41.0445 6.50069C40.9553 7.92942 41.1336 9.38216 41.0805 10.8109C38.6991 9.98905 35.8233 10.1326 33.8231 11.7933C31.8968 13.4572 31.1875 16.1326 32.0372 18.5323C32.6694 20.2993 34.1069 21.6578 35.9068 22.1876C37.6111 22.7041 39.4368 22.6541 41.1096 22.0447C41.1311 22.2046 41.1425 22.3658 41.1456 22.527H44.7174V3.17986H41.1456C41.0805 4.28681 41.1336 5.39438 41.0445 6.50133V6.50069ZM40.7764 17.8894C40.1518 19.3364 38.2521 19.6753 36.8948 19.1221C35.8454 18.6227 35.2335 17.5069 35.3776 16.3532C35.2897 15.2165 35.9466 14.1532 37.0023 13.7221C38.0833 13.3112 39.3009 13.5021 40.2049 14.2221C41.1873 15.1331 41.2651 16.711 40.7764 17.8894ZM95.7013 17.0682C95.6476 15.6692 95.8973 14.1867 95.3265 12.8648C94.7246 11.5094 93.4799 10.5492 92.0164 10.3108C90.8437 10.0997 89.6406 10.13 88.48 10.4006C86.6454 10.8583 85.2552 12.3578 84.9379 14.2221C86.0151 14.4371 87.0689 14.7222 88.1588 14.8176C88.3232 14.3555 88.5786 13.9307 88.9086 13.5672C89.4997 13.1499 90.2469 13.0185 90.9442 13.21C91.5871 13.2909 92.0474 13.87 91.981 14.5142C91.981 14.8891 91.5701 14.9965 91.2837 15.068C90.0516 15.3177 88.7834 15.4068 87.569 15.7109C86.4829 15.9941 85.5663 16.7224 85.0447 17.7168C84.465 19.0532 84.7545 20.6084 85.7774 21.6458C86.8837 22.668 88.4168 23.0922 89.891 22.7831C90.8595 22.6377 91.723 22.094 92.2724 21.2829C92.3078 21.6938 92.3615 22.1225 92.433 22.5327H95.8499C95.5762 20.7114 95.7551 18.8895 95.7013 17.0682ZM91.6238 19.3718C90.9695 20.2177 89.7829 20.4339 88.8732 19.8719C88.5419 19.607 88.3763 19.186 88.4389 18.7669C88.5021 18.3471 88.7828 17.9924 89.1766 17.8357C90.104 17.5942 91.0466 17.4146 91.9987 17.3002C91.9803 18.0209 92.0701 18.765 91.6232 19.3718H91.6238ZM260.451 4.31843e-06C258.609 -0.0025244 256.947 1.10568 256.24 2.80688C255.533 4.5087 255.921 6.46845 257.223 7.77264C258.525 9.07619 260.485 9.46688 262.187 8.76263C263.889 8.05775 265 6.39702 265 4.55422C265 2.04131 262.964 0.00316521 260.451 4.31843e-06ZM260.451 7.91172C259.09 7.91425 257.861 7.09621 257.339 5.83817C256.817 4.58077 257.105 3.13245 258.067 2.16964C259.03 1.20683 260.478 0.919824 261.735 1.442C262.993 1.96418 263.811 3.19314 263.809 4.55422C263.799 6.40271 262.3 7.89654 260.452 7.89971V7.91235L260.451 7.91172Z" fill="#00AADD"/>
<path d="M261.291 4.62555C261.209 4.53894 261.103 4.47888 260.987 4.45296C261.171 4.40428 261.333 4.29744 261.451 4.14951C261.556 3.99779 261.609 3.81572 261.601 3.63113C261.625 3.37194 261.515 3.11843 261.309 2.95849C261.028 2.79412 260.704 2.71953 260.38 2.74418H259.118V5.94743H259.946V4.75641H260.178C260.291 4.75008 260.405 4.78169 260.499 4.84554C260.607 4.93215 260.692 5.04468 260.743 5.17301L261.13 5.96513H262.011L261.565 5.05985C261.494 4.90307 261.401 4.75704 261.291 4.62555ZM260.695 4.06607C260.585 4.14066 260.453 4.17607 260.32 4.16722H259.975V3.34538H260.32C260.452 3.33274 260.584 3.36435 260.695 3.43515C260.776 3.51987 260.817 3.63429 260.809 3.75061C260.812 3.87199 260.759 3.98831 260.666 4.06607H260.695Z" fill="#00AADD"/>
</svg>
